<svg xmlns="http://www.w3.org/2000/svg" xmlns:xlink="http://www.w3.org/1999/xlink" xmlns:serif="http://www.serif.com/" version="1.1" xml:space="preserve" style="fill-rule:evenodd;clip-rule:evenodd;stroke-linejoin:round;stroke-miterlimit:2;" viewBox="928.84 224.22 838.53 761.16">
    <g id="iphone-max" serif:id="iphone max" transform="matrix(1.10345,0,0,1.10335,0,0.729968)">
        <g transform="matrix(0.90625,0,0,0.90633,-20655.1,-5809.12)">
            <path d="M24466.2,6634.49L23813.7,6634.49C23787.7,6634.49 23763,6645.5 23745.7,6664.78C23728.3,6684.05 23719.9,6709.79 23722.7,6735.58C23737.3,6874.68 23763.7,7124.68 23779.4,7272.95C23780.8,7286.45 23783,7298.7 23786.5,7309.86C23799.4,7350.05 23829.1,7380.08 23875.2,7389.45C23886,7391.65 23897.3,7392.65 23910,7392.65L24369.9,7392.65C24382.5,7392.65 24393.9,7391.65 24404.7,7389.45C24450.8,7380.08 24480.5,7350.05 24493.3,7309.86C24496.9,7298.7 24499,7286.45 24500.5,7272.95C24516.1,7124.68 24542.5,6874.68 24557.2,6735.58C24559.9,6709.79 24551.5,6684.05 24534.2,6664.78C24516.8,6645.5 24492.1,6634.49 24466.2,6634.49Z" style="fill:none;stroke:rgb(255,5,5);stroke-opacity:0.3;stroke-width:3px;"/>
        </g>
    </g>
</svg>